<svg xmlns="http://www.w3.org/2000/svg" viewBox="0 0 60 60"><defs><style>.cls-1{fill:#fd256f;}.cls-2{fill:none;}</style></defs><g id="Layer_2" data-name="Layer 2"><g id="Layer_1-2" data-name="Layer 1"><path class="cls-1" d="M40,26.48a10,10,0,1,1-10-10A10,10,0,0,1,40,26.48Z"/><path class="cls-1" d="M40,26.48a10,10,0,1,1-10-10A10,10,0,0,1,40,26.48Z"/><path class="cls-1" d="M30,3.33A26.67,26.67,0,1,0,56.67,30,26.67,26.67,0,0,0,30,3.33ZM46.11,45.92a12.46,12.46,0,0,0-2.94-2.67c-7.22-4.84-19.06-4.84-26.34,0a12.86,12.86,0,0,0-2.94,2.67,22.67,22.67,0,1,1,32.22,0Z"/><path class="cls-1" d="M40,26.48a10,10,0,1,1-10-10A10,10,0,0,1,40,26.48Z"/><rect class="cls-2" width="60" height="60"/></g></g></svg>