<svg xmlns="http://www.w3.org/2000/svg" viewBox="0 0 60 60"><defs><style>.cls-1,.cls-2{fill:#fd256f;}.cls-2{fill-rule:evenodd;}.cls-3{fill:none;}</style></defs><g id="Layer_2" data-name="Layer 2"><g id="Layer_1-2" data-name="Layer 1"><line class="cls-1" x1="53.1" y1="56.86" x2="53.11" y2="56.86"/><path class="cls-2" d="M56.48,42.06c-2.14-9.22-16.08-9.25-18.24,0h0c-1.25,5.41,2.17,10,5.19,12.85a5.77,5.77,0,0,0,7.85,0C54.29,52.06,57.73,47.48,56.48,42.06Zm-9,4.27a2.67,2.67,0,0,1,0-5.33h0a2.67,2.67,0,1,1,0,5.33Z"/><path class="cls-2" d="M21.76,10.06C19.62.84,5.68.81,3.52,10.06h0c-1.25,5.41,2.17,10,5.19,12.85a5.77,5.77,0,0,0,7.85,0C19.57,20.06,23,15.48,21.76,10.06Zm-9,4.27a2.67,2.67,0,0,1,0-5.33h0a2.67,2.67,0,1,1,0,5.33Z"/><path class="cls-2" d="M20.72,40.63a3.32,3.32,0,0,0,2.18,5.83h7.15a2,2,0,0,1,0,4H22.9a7.33,7.33,0,0,1-4.82-12.85L39.38,19a3.32,3.32,0,0,0-2.18-5.84H30.05a2,2,0,0,1,0-4H37.2A7.33,7.33,0,0,1,42,22L20.72,40.62Z"/><rect class="cls-3" width="60" height="60"/></g></g></svg>