<svg xmlns="http://www.w3.org/2000/svg" viewBox="0 0 60 60"><defs><style>.cls-1{fill:#fd256f;}.cls-2{fill:none;}</style></defs><g id="Layer_2" data-name="Layer 2"><g id="Layer_1-2" data-name="Layer 1"><path class="cls-1" d="M53.55,5.68A10.81,10.81,0,0,0,46,2.56H14C6,2.56,3.33,7.33,3.33,13.22v40A2.66,2.66,0,0,0,7.6,55.35L12.16,52a2.67,2.67,0,0,1,3.52.25l4.43,4.46a2.68,2.68,0,0,0,3.78,0l4.48-4.48A2.63,2.63,0,0,1,31.84,52l4.56,3.4a2.67,2.67,0,0,0,4.27-2.13V26.56h9.12c4.21,0,6.88-2.67,6.88-6.88V13.22A10.73,10.73,0,0,0,53.55,5.68ZM13.92,34.59a2.68,2.68,0,1,1,2.67-2.68A2.68,2.68,0,0,1,13.92,34.59Zm0-10.68a2.66,2.66,0,1,1,2.67-2.67A2.67,2.67,0,0,1,13.92,23.91ZM30,33.91H22a2,2,0,0,1,0-4h8a2,2,0,0,1,0,4Zm0-10.67H22a2,2,0,0,1,0-4h8a2,2,0,0,1,0,4Zm22.67-3.56c0,2-.88,2.88-2.88,2.88H44.67V7.91A1.35,1.35,0,0,1,46,6.56a6.72,6.72,0,0,1,4.66,1.91,6.81,6.81,0,0,1,2,4.75Z"/><rect class="cls-2" width="60" height="60"/></g></g></svg>