<svg width="88" height="88" viewBox="0 0 88 88" fill="none" xmlns="http://www.w3.org/2000/svg">
<path d="M33 7.33331C23.3933 7.33331 15.5833 15.1433 15.5833 24.75C15.5833 34.1733 22.9533 41.8 32.56 42.13C32.8533 42.0933 33.1467 42.0933 33.3667 42.13C33.44 42.13 33.4767 42.13 33.55 42.13C33.5867 42.13 33.5867 42.13 33.6233 42.13C43.01 41.8 50.38 34.1733 50.4167 24.75C50.4167 15.1433 42.6067 7.33331 33 7.33331Z" fill="#FD256F"/>
<path d="M51.6267 51.8833C41.3967 45.0633 24.7133 45.0633 14.41 51.8833C9.75333 55 7.18666 59.2166 7.18666 63.7266C7.18666 68.2366 9.75333 72.4166 14.3733 75.4966C19.5067 78.9433 26.2533 80.6666 33 80.6666C39.7467 80.6666 46.4933 78.9433 51.6267 75.4966C56.2467 72.38 58.8133 68.2 58.8133 63.6533C58.7767 59.1433 56.2467 54.9633 51.6267 51.8833Z" fill="#FD256F"/>
<path d="M73.2967 26.9133C73.8833 34.0266 68.8233 40.26 61.82 41.1033C61.7833 41.1033 61.7833 41.1033 61.7467 41.1033H61.6367C61.4167 41.1033 61.1967 41.1033 61.0133 41.1766C57.4567 41.36 54.1933 40.2233 51.7367 38.1333C55.5133 34.76 57.6767 29.7 57.2367 24.2C56.98 21.23 55.9533 18.5166 54.4133 16.2066C55.8067 15.51 57.42 15.07 59.07 14.9233C66.2567 14.3 72.6733 19.6533 73.2967 26.9133Z" fill="#FD256F"/>
<path d="M80.63 60.83C80.3367 64.3867 78.0633 67.4667 74.25 69.5567C70.5833 71.5734 65.9633 72.5267 61.38 72.4167C64.02 70.0334 65.56 67.0634 65.8533 63.91C66.22 59.3634 64.0567 55 59.73 51.5167C57.2733 49.5734 54.4133 48.0334 51.2967 46.8967C59.4 44.55 69.5933 46.1267 75.8633 51.1867C79.2367 53.9 80.96 57.31 80.63 60.83Z" fill="#FD256F"/>
<circle cx="75.5" cy="6.5" r="5.5" fill="#FD256F"/>
</svg>
