<svg xmlns="http://www.w3.org/2000/svg" viewBox="0 0 19.97 20"><defs><style>.cls-1{fill:#05c1aa;}</style></defs><g id="Layer_2" data-name="Layer 2"><g id="Layer_1-2" data-name="Layer 1"><path class="cls-1" d="M9.05,13,7.2,14.8a1,1,0,0,1-1.41,0l-.33-.32a28.41,28.41,0,0,1-2.79-3.27,17.83,17.83,0,0,1-2-3.41A8.59,8.59,0,0,1,0,4.54,5.17,5.17,0,0,1,.36,2.61,4.6,4.6,0,0,1,1.51.94,2.93,2.93,0,0,1,3.59,0,1.88,1.88,0,0,1,4.4.18a1.63,1.63,0,0,1,.67.56L7.39,4a3.42,3.42,0,0,1,.4.7,1.58,1.58,0,0,1,.14.61A1.36,1.36,0,0,1,7.72,6a3.4,3.4,0,0,1-.56.71l-.76.79a.54.54,0,0,0-.16.4.91.91,0,0,0,0,.23l.08.2a8.3,8.3,0,0,0,.93,1.28c.45.52.93,1,1.45,1.58l.31.3A1,1,0,0,1,9.05,13Z"/><path class="cls-1" d="M20,16.33a2.54,2.54,0,0,1-.15.85,2.44,2.44,0,0,1-.1.24,4.13,4.13,0,0,1-.68,1,4.51,4.51,0,0,1-1.64,1.18h0a5.05,5.05,0,0,1-1.92.37,8.33,8.33,0,0,1-3.26-.73,17.56,17.56,0,0,1-3.44-2C8.36,17,8,16.71,7.6,16.4l3.27-3.27a5.62,5.62,0,0,0,.74.48l.18.08a.69.69,0,0,0,.25,0,.55.55,0,0,0,.41-.17l.76-.75a3.07,3.07,0,0,1,.72-.56,1.33,1.33,0,0,1,.71-.21,1.6,1.6,0,0,1,.61.13,3.87,3.87,0,0,1,.7.39l3.31,2.35a1.52,1.52,0,0,1,.55.64A2.05,2.05,0,0,1,20,16.33Z"/></g></g></svg>