<?xml version="1.0" encoding="UTF-8"?>
<svg id="Layer_2" data-name="Layer 2" xmlns="http://www.w3.org/2000/svg" viewBox="0 0 20 20">
  <defs>
    <style>
      .cls-1 {
        fill: none;
      }

      .cls-1, .cls-2 {
        stroke-width: 0px;
      }

      .cls-2 {
        fill: #05c1aa;
      }
    </style>
  </defs>
  <g id="Layer_1-2" data-name="Layer 1">
    <rect class="cls-1" width="20" height="20"/>
    <path class="cls-2" d="m18.12,2.19c1.04,0,1.88.84,1.88,1.88,0,.59-.28,1.14-.75,1.5l-8.5,6.37c-.45.33-1.06.33-1.5,0L.75,5.56C.28,5.21,0,4.65,0,4.06,0,3.03.84,2.19,1.88,2.19h16.25Zm-9.62,10.75c.89.67,2.11.67,3,0l8.5-6.37v8.12c0,1.38-1.12,2.5-2.5,2.5H2.5C1.12,17.19,0,16.07,0,14.69V6.56l8.5,6.37Z"/>
  </g>
</svg>