<svg width="101" height="94" viewBox="0 0 101 94" fill="none" xmlns="http://www.w3.org/2000/svg">
<path d="M44 63.5667V63.97C44 64.9967 43.1933 65.8033 42.1667 65.8033H9.16667C8.14 65.8033 7.33334 64.9967 7.33334 63.97V63.5667C7.33334 57.1133 8.94667 55.5 15.4733 55.5H35.86C42.3867 55.5 44 57.1133 44 63.5667Z" fill="#072B7F"/>
<path d="M9.16667 69.47C8.14 69.47 7.33334 70.2766 7.33334 71.3033V74.97V78.6C7.33334 85.0533 8.94667 86.6666 15.4733 86.6666H35.86C42.3867 86.6666 44 85.0533 44 78.6V74.97V71.3033C44 70.2766 43.1933 69.47 42.1667 69.47H9.16667Z" fill="#072B7F"/>
<path d="M80.6667 61C80.6667 75.19 69.19 86.6667 55 86.6667L58.85 80.25" stroke="#072B7F" stroke-width="1.5" stroke-linecap="round" stroke-linejoin="round"/>
<path d="M7.33334 39C7.33334 24.81 18.81 13.3333 33 13.3333L29.15 19.75" stroke="#072B7F" stroke-width="1.5" stroke-linecap="round" stroke-linejoin="round"/>
<path d="M67.8333 46.3333C76.946 46.3333 84.3333 38.946 84.3333 29.8333C84.3333 20.7206 76.946 13.3333 67.8333 13.3333C58.7206 13.3333 51.3333 20.7206 51.3333 29.8333C51.3333 38.946 58.7206 46.3333 67.8333 46.3333Z" fill="#072B7F"/>
<circle cx="95.5" cy="5.5" r="5.5" fill="#072B7F"/>
</svg>
