<svg width="88" height="88" viewBox="0 0 88 88" fill="none" xmlns="http://www.w3.org/2000/svg">
<path d="M66 58.6667V69.6667C66 75.7167 61.05 80.6667 55 80.6667H33C26.95 80.6667 22 75.7167 22 69.6667V54.9634C22 52.9467 23.65 51.2967 25.7033 51.2967L36.2633 51.3334C38.7933 51.3334 41.2867 51.8834 43.5967 52.9834C46.1267 54.1567 48.8033 55 51.6267 55H62.3333C64.35 55 66 56.65 66 58.6667Z" fill="#FC9537"/>
<path d="M63.8367 34.5033L56.0633 26.73C55.3667 26.0333 55 25.1166 55 24.1633V18.0033C57.1267 17.27 58.6667 15.2166 58.6667 12.8333C58.6667 9.78998 56.21 7.33331 53.1667 7.33331H34.8333C31.79 7.33331 29.3333 9.78998 29.3333 12.8333C29.3333 15.2166 30.8733 17.27 33 18.0033V24.1633C33 25.1166 32.6333 26.0333 31.9367 26.73L24.1633 34.5033C22.99 35.6766 22 38.06 22 39.71V42.0933C22 44.11 23.6133 45.76 25.63 45.76L36.3 45.8333C39.8933 45.8333 43.5233 46.7133 46.75 48.4C48.29 49.2066 50.05 49.5 51.7733 49.5H62.3333C64.35 49.5 66 47.85 66 45.8333V39.71C66 38.06 65.01 35.6766 63.8367 34.5033Z" fill="#FC9537"/>
<circle cx="75.5" cy="6.5" r="5.5" fill="#FC9537"/>
</svg>
