<?xml version="1.0" encoding="iso-8859-1"?>
<!-- Generator: Adobe Illustrator 23.0.6, SVG Export Plug-In . SVG Version: 6.00 Build 0)  -->
<svg version="1.1" id="Layer_1" xmlns="http://www.w3.org/2000/svg" xmlns:xlink="http://www.w3.org/1999/xlink" x="0px" y="0px"
	 viewBox="0 0 936 253.272" style="enable-background:new 0 0 936 253.272;" xml:space="preserve">
<g style="display:none;">
	<g style="display:inline;">
		<g>
			<g>
				<polygon style="fill:#BFB5BF;" points="441.94,345.585 667.706,475.965 591.409,520.015 365.642,389.635 				"/>
				<polygon style="fill:#0F0E1B;" points="409.736,400.111 419.967,392.216 456.265,417.741 543.531,477.357 554.894,470.529 
					585.178,489.754 571.159,450.838 410.172,370.905 				"/>
				<path style="fill:#23222D;" d="M589.984,489.223c0-9.896-6.991-21.954-15.615-26.933c-4.299-2.482-8.191-2.736-11.015-1.141h0
					l-0.003,0.002c-0.022,0.012-0.043,0.025-0.065,0.037l-9.86,5.697v7.639l22.146,30.402l9.248-5.373
					c0.437-0.2,0.851-0.441,1.241-0.721l0.004-0.002v-0.001C588.504,497.076,589.984,493.775,589.984,489.223z"/>
				<path style="fill:#23222D;" d="M455.057,411.322c0-9.896-6.991-21.954-15.615-26.933c-4.56-2.633-8.663-2.758-11.518-0.829
					l-9.763,5.65l6.611,10.779c1.727,6.42,5.674,12.892,10.578,17.248l5.816,9.484l8.576-5.001c0.553-0.238,1.072-0.541,1.552-0.905
					l0,0l0,0C453.639,419.033,455.057,415.777,455.057,411.322z"/>
				<g>
					<path style="fill:#E4DFD9;" d="M659.406,427.337v27.58l-11.777-6.8c-3.085-9.995-10.202-19.082-18.493-23.869
						c-11.117-6.418-12.641,1.052-18.894,12.191c-0.502,0.894-1.225,3.11-1.225,3.11l-93.635-54.06
						c0.021-1.199,0.03-2.465,0.03-3.799c0-12.756-9.013-35.205-20.13-41.623c-11.116-6.418-20.13-1.279-20.13,11.477
						c0,1.347,0.022,2.632,0.07,3.857l-29.856-17.237v-99.159L627.8,344.332l10.755,57.673L659.406,427.337z"/>
					<path style="fill:#2D2C37;" d="M645.825,456.983c0,9.896-6.991,13.882-15.615,8.903c-8.624-4.979-15.615-17.037-15.615-26.933
						c0-9.896,6.991-13.882,15.615-8.903C638.834,435.029,645.825,447.087,645.825,456.983z"/>
					<path style="fill:#2D2C37;" d="M510.897,379.082c0,9.896-6.991,13.882-15.615,8.903c-8.624-4.979-15.615-23.939-15.615-33.835
						c0-9.896,6.991-13.882,15.615-8.903C503.906,350.226,510.897,369.187,510.897,379.082z"/>
					<path style="fill:#504F58;" d="M506.131,376.331c0,6.875-4.857,9.645-10.849,6.185c-5.992-3.459-10.849-18.739-10.849-25.615
						s4.857-9.645,10.849-6.185C501.274,354.176,506.131,369.456,506.131,376.331z"/>
					<path style="fill:#C2C7D6;" d="M505.112,375.743c0,6.23-4.401,8.739-9.83,5.604c-5.429-3.134-9.83-17.627-9.83-23.857
						s4.401-8.739,9.83-5.604C500.711,355.02,505.112,369.513,505.112,375.743z"/>
					<path style="fill:#A5ACC2;" d="M504.125,375.172c0,5.604-3.959,7.861-8.842,5.041c-4.883-2.819-8.842-16.55-8.842-22.153
						c0-5.604,3.959-7.861,8.842-5.041C500.166,355.838,504.125,369.569,504.125,375.172z"/>
					<path style="fill:#CFD9E7;" d="M500.707,366.297c0,3.438-2.429,11.725-5.424,9.995c-2.996-1.73-5.424-12.821-5.424-16.258
						c0-3.438,2.429-4.822,5.424-3.093C498.278,358.67,500.707,362.859,500.707,366.297z"/>
					<path style="fill:#504F58;" d="M641.059,454.231c0,6.875-4.857,9.645-10.849,6.185s-10.849-11.837-10.849-18.712
						s4.857-9.645,10.849-6.185S641.059,447.356,641.059,454.231z"/>
					
						<ellipse transform="matrix(0.8633 -0.5047 0.5047 0.8633 -139.9351 379.2924)" style="fill:#B5BBCD;" cx="630.21" cy="447.968" rx="8.001" ry="13.858"/>
					<path style="fill:#CFD9E7;" d="M637.748,452.32c0,4.777-3.375,6.701-7.538,4.298c-4.163-2.404-7.538-8.225-7.538-13.002
						c0-4.777,3.375-6.701,7.538-4.298C634.373,441.721,637.748,447.543,637.748,452.32z"/>
					<path style="fill:#E1E7EF;" d="M634.323,450.342c0,2.606-1.841,3.656-4.113,2.345c-2.271-1.311-4.113-4.487-4.113-7.094
						s1.841-3.656,4.113-2.345C632.481,444.56,634.323,447.736,634.323,450.342z"/>
					<path style="fill:#C2C7D6;" d="M632.444,449.258c0,1.416-1,1.986-2.234,1.274c-1.234-0.712-2.234-2.438-2.234-3.854
						c0-1.416,1-1.986,2.234-1.274C631.444,446.117,632.444,447.842,632.444,449.258z"/>
					<polygon style="fill:#6B6164;" points="662.584,465.652 596.8,494.497 585.8,490.724 578.926,486.756 649.063,446.262 
						659.848,452.489 662.584,456.516 					"/>
					<polygon style="fill:#F3F1EE;" points="626.589,340.322 446.872,236.562 445.366,239.004 627.8,344.332 					"/>
					<polygon style="fill:#98979D;" points="578.448,380.133 448.156,304.909 448.156,301.131 578.448,376.355 					"/>
					<g>
						<polygon style="fill:#CDC6BC;" points="580.205,419.097 580.205,328.078 617.767,349.764 617.767,410.348 605.413,433.651 
													"/>
					</g>
					<polygon style="fill:#2D2C37;" points="628.616,356.028 620.15,351.14 620.15,399.059 632.692,406.3 636.237,400.527 					"/>
					<polygon style="fill:#7572A4;" points="621.279,398.416 621.279,353.087 627.746,356.821 635.034,399.679 632.007,404.609 
											"/>
					<g>
						<polygon style="fill:#9B897F;" points="609.017,436.886 578.448,419.237 578.448,421.9 609.017,439.549 						"/>
					</g>
					<g>
						<polygon style="fill:#9B897F;" points="445.366,335.5 434.659,329.318 434.659,331.981 445.366,338.163 						"/>
					</g>
					<polygon style="fill:#504F58;" points="656.036,437.372 651.552,434.783 651.552,429.638 656.036,432.227 					"/>
					<polygon style="fill:#FF9A2E;" points="655.655,436.715 651.933,434.566 651.933,430.295 655.655,432.444 					"/>
					<path style="fill:#504F58;" d="M455.004,318.051c0,1.59-1.123,2.23-2.509,1.43c-1.386-0.8-2.509-2.737-2.509-4.327
						c0-1.59,1.123-2.23,2.509-1.43C453.88,314.523,455.004,316.461,455.004,318.051z"/>
					<path style="fill:#FF512E;" d="M454.482,317.75c0,1.259-0.89,1.767-1.987,1.133c-1.097-0.634-1.987-2.168-1.987-3.427
						s0.89-1.767,1.987-1.133C453.592,314.956,454.482,316.49,454.482,317.75z"/>
					<path style="fill:#F9F1EC;" d="M453.918,327.179c0,1.081-0.763,1.516-1.705,0.972c-0.942-0.544-1.705-1.86-1.705-2.941
						c0-1.081,0.763-1.516,1.705-0.972C453.154,324.782,453.918,326.098,453.918,327.179z"/>
					<path style="fill:#FF9A2E;" d="M453.659,327.03c0,0.916-0.647,1.286-1.446,0.824c-0.799-0.461-1.446-1.578-1.446-2.494
						c0-0.917,0.648-1.286,1.446-0.825C453.011,324.996,453.659,326.113,453.659,327.03z"/>
					<path style="fill:#F9F1EC;" d="M523.456,374.229c0,1.08-0.763,1.516-1.705,0.972c-0.942-0.544-1.705-1.86-1.705-2.941
						s0.763-8.418,1.705-7.874C522.693,364.93,523.456,373.149,523.456,374.229z"/>
					<path style="fill:#FF9A2E;" d="M523.198,374.08c0,0.917-0.647,1.286-1.446,0.824c-0.799-0.461-1.446-1.578-1.446-2.494
						s0.647-1.286,1.446-0.824C522.55,372.047,523.198,373.164,523.198,374.08z"/>
					<path style="fill:#F9F1EC;" d="M574.569,396.837c0,1.08-0.763,1.516-1.705,0.972c-0.942-0.544-1.705-1.86-1.705-2.941
						c0-1.08,0.763-1.516,1.705-0.972C573.806,394.44,574.569,395.757,574.569,396.837z"/>
					<path style="fill:#FF9A2E;" d="M574.31,396.688c0,0.916-0.648,1.286-1.446,0.824c-0.799-0.461-1.446-1.578-1.446-2.494
						c0-0.917,0.647-1.286,1.446-0.825C573.663,394.654,574.31,395.771,574.31,396.688z"/>
					<g>
						<polygon style="fill:#CDC6BC;" points="456.34,249.512 450.508,246.145 450.508,243.554 456.34,246.922 						"/>
					</g>
					<polygon style="fill:#FF9A2E;" points="455.823,248.755 451.024,245.984 451.024,244.069 455.823,246.839 					"/>
					<g>
						<polygon style="fill:#CDC6BC;" points="529.03,291.48 523.198,288.113 523.198,285.522 529.03,288.889 						"/>
					</g>
					<polygon style="fill:#FF9A2E;" points="528.513,290.723 523.714,287.952 523.714,286.036 528.513,288.807 					"/>
					<g>
						<polygon style="fill:#CDC6BC;" points="620.683,344.396 614.851,341.029 614.851,338.438 620.683,341.805 						"/>
					</g>
					<polygon style="fill:#FF9A2E;" points="620.167,343.639 615.368,340.868 615.368,338.952 620.167,341.723 					"/>
					<g>
						<g>
							<path style="fill:#CDC6BC;" d="M496.62,318.065c-0.915,0-1.899-0.288-2.895-0.863l-36.739-21.213
								c-3.764-2.172-6.824-7.995-6.824-12.984v-20.963c0-2.746,0.93-4.86,2.554-5.797c1.378-0.796,3.107-0.675,4.874,0.343
								l36.739,21.212c3.764,2.172,6.824,7.996,6.824,12.985v20.962c0,2.747-0.93,4.861-2.556,5.798
								C497.998,317.893,497.329,318.065,496.62,318.065z M494.329,316.155c1.371,0.791,2.678,0.918,3.664,0.343
								c1.239-0.716,1.953-2.448,1.953-4.751v-20.962c0-4.604-2.79-9.959-6.22-11.938l-36.739-21.212
								c-1.368-0.79-2.673-0.918-3.664-0.343c-1.242,0.716-1.953,2.447-1.953,4.75v20.963c0,4.603,2.79,9.958,6.22,11.937
								L494.329,316.155z"/>
						</g>
					</g>
					<g>
						<g>
							<path style="fill:#CDC6BC;" d="M553.79,351.072c-0.918,0-1.901-0.29-2.895-0.864l-36.741-21.212
								c-3.764-2.173-6.824-7.998-6.824-12.984v-20.963c0-2.746,0.932-4.861,2.556-5.798c1.381-0.795,3.109-0.674,4.872,0.344
								l36.741,21.212c3.762,2.172,6.822,7.996,6.822,12.984v20.963c0,2.747-0.93,4.861-2.556,5.798
								C555.163,350.899,554.496,351.072,553.79,351.072z M511.866,289.943c-0.502,0-0.964,0.118-1.373,0.354
								c-1.242,0.717-1.955,2.448-1.955,4.751v20.963c0,4.602,2.79,9.956,6.22,11.937l36.741,21.212
								c1.371,0.791,2.676,0.915,3.662,0.345c1.239-0.716,1.953-2.448,1.953-4.751V323.79c0-4.603-2.79-9.958-6.218-11.937
								l-36.741-21.212C513.351,290.178,512.572,289.943,511.866,289.943z"/>
						</g>
					</g>
					<path style="fill:#2D2C37;" d="M608.251,392.189l-20.193-18.56c-2.139-1.235-3.872-4.547-3.872-7.399v-27.488
						c0-2.851,1.734-4.162,3.872-2.927l20.193,11.658c2.138,1.235,3.872,4.547,3.872,7.399v34.391
						C612.123,392.113,610.39,393.424,608.251,392.189z"/>
					<path style="fill:#7572A4;" d="M585.315,367.091v-27.908c0-2.02,1.228-2.949,2.744-2.074l20.193,11.658
						c1.515,0.875,2.744,3.222,2.744,5.242v34.81c0,2.02-1.228,2.949-2.744,2.074l-20.193-18.56
						C586.543,371.459,585.315,369.112,585.315,367.091z"/>
					<path style="fill:#2D2C37;" d="M594.282,415.633l-6.224-3.593c-2.139-1.235-3.872-11.449-3.872-14.301v-17.504
						c0-2.852,1.734-4.162,3.872-2.927l6.224,3.593c2.139,1.235,3.872,4.547,3.872,7.399v24.406
						C598.155,415.557,596.421,416.868,594.282,415.633z"/>
					<path style="fill:#7572A4;" d="M585.315,398.6v-17.923c0-2.02,1.228-2.949,2.744-2.074l6.224,3.593
						c1.515,0.875,2.744,3.222,2.744,5.242v24.826c0,2.02-1.228,2.949-2.744,2.074l-6.224-3.593
						C586.543,409.87,585.315,400.621,585.315,398.6z"/>
					<path style="fill:#504F58;" d="M625.909,448.046c0.477,1.444,0.9,2.192,1.898,3.363c0.355,0.416,0.582,0.994,0.471,1.346l0,0
						c-0.112,0.352-0.624,0.248-1.095-0.304c-1.031-1.165-2.064-2.996-2.519-4.464c-0.225-0.681-0.037-1.153,0.33-1.052l0,0
						C625.359,447.034,625.739,447.533,625.909,448.046z"/>
					<path style="fill:#504F58;" d="M634.511,447.89c-0.477-1.444-0.9-2.192-1.898-3.363c-0.355-0.416-0.583-0.994-0.471-1.346l0,0
						c0.112-0.352,0.624-0.248,1.095,0.304c1.031,1.165,2.064,2.996,2.519,4.464c0.225,0.681,0.037,1.153-0.33,1.052l0,0
						C635.061,448.901,634.681,448.403,634.511,447.89z"/>
					<path style="fill:#504F58;" d="M632.442,454.192c1.018,0.04,1.458-0.191,1.976-1.037c0.184-0.301,0.573-0.337,0.936,0l0,0
						c0.362,0.337,0.53,1.023,0.286,1.422c-0.497,0.897-1.573,1.461-2.623,1.377c-0.48-0.019-0.986-0.527-1.083-1.004l0,0
						C631.837,454.473,632.08,454.178,632.442,454.192z"/>
					<path style="fill:#504F58;" d="M627.978,441.743c-1.018-0.04-1.458,0.191-1.976,1.037c-0.184,0.301-0.573,0.337-0.936,0l0,0
						c-0.362-0.337-0.53-1.023-0.286-1.422c0.497-0.897,1.573-1.461,2.623-1.377c0.48,0.019,0.986,0.527,1.083,1.004l0,0
						C628.583,441.462,628.34,441.757,627.978,441.743z"/>
					<g>
						<polygon style="fill:#C9C3B9;" points="635.178,428.452 634.574,428.452 634.596,411.128 638.275,401.893 638.835,402.117 
							635.178,411.298 						"/>
					</g>
					<g>
						<polygon style="fill:#C9C3B9;" points="659.181,432.09 636.492,406.825 636.94,406.421 659.629,431.686 						"/>
					</g>
				</g>
				<polygon style="fill:#6B6164;" points="379.88,380.955 369.173,374.773 381.894,367.429 392.601,373.611 				"/>
				<g>
					<path style="fill:#DED8D1;" d="M593.92,465.145v27.58l-11.777-6.799c-3.085-9.995-10.202-19.082-18.493-23.869
						c-11.117-6.418-12.641,1.052-18.894,12.19c-0.502,0.894-1.225,3.11-1.225,3.11l-93.635-54.06
						c0.021-1.199,0.03-2.465,0.03-3.799c0-12.756-9.013-28.303-20.13-34.721c-11.117-6.418-20.13-1.279-20.13,11.477
						c0,1.347,0.023,2.632,0.07,3.857l-29.856-17.238V276.812L562.314,382.14l10.755,57.673L593.92,465.145z"/>
					<g>
						<path style="fill:#CDC6BC;" d="M388.536,364.386c0,1.259-0.89,1.767-1.987,1.133s-1.987-2.168-1.987-3.427
							c0-1.259,0.89-1.767,1.987-1.133C387.646,361.592,388.536,363.127,388.536,364.386z"/>
					</g>
					<g>
						<polygon style="fill:#CDC6BC;" points="511.29,426.759 380.998,351.535 380.998,347.757 382.67,345.842 511.29,422.981 
							512.962,424.844 						"/>
					</g>
					<g>
						<polygon style="fill:#B5AA9C;" points="588.571,475.968 585.577,474.24 585.577,470.804 586.447,468.103 590.169,474.524 
													"/>
					</g>
					
						<ellipse transform="matrix(0.8633 -0.5047 0.5047 0.8633 -167.9691 351.4163)" style="fill:#2D2C37;" cx="564.724" cy="485.776" rx="12.709" ry="22.014"/>
					
						<ellipse transform="matrix(0.8633 -0.5047 0.5047 0.8633 -167.9691 351.4163)" style="fill:#393843;" cx="564.724" cy="485.776" rx="12.709" ry="22.014"/>
					<path style="fill:#2D2C37;" d="M579.364,494.611c0,9.519-6.725,13.354-15.021,8.564c-8.296-4.79-15.021-16.389-15.021-25.909
						c0-9.519,6.725-13.353,15.021-8.564C572.639,473.492,579.364,485.092,579.364,494.611z"/>
					<path style="fill:#393843;" d="M445.411,416.891c0,9.896-6.991,13.882-15.615,8.903c-8.624-4.979-15.615-17.037-15.615-26.933
						c0-9.896,6.991-13.881,15.615-8.903C438.42,394.937,445.411,406.995,445.411,416.891z"/>
					<path style="fill:#2D2C37;" d="M443.843,416.711c0,9.519-6.725,13.353-15.021,8.564c-8.296-4.789-15.021-16.389-15.021-25.909
						c0-9.519,6.725-13.353,15.021-8.564C437.118,395.592,443.843,407.192,443.843,416.711z"/>
					
						<ellipse transform="matrix(0.8633 -0.5047 0.5047 0.8633 -147.2475 272.5553)" style="fill:#504F58;" cx="429.507" cy="408.093" rx="8.83" ry="15.295"/>
					<path style="fill:#C4C2BB;" d="M439.626,413.551c0,6.23-4.401,8.739-9.83,5.604c-5.429-3.134-9.83-10.725-9.83-16.955
						c0-6.229,4.401-8.739,9.83-5.604C435.225,399.731,439.626,407.322,439.626,413.551z"/>
					<path style="fill:#B0AC9E;" d="M438.639,412.981c0,5.602-3.96,7.86-8.844,5.04c-4.883-2.818-8.841-9.647-8.841-15.25
						c0-5.605,3.958-7.862,8.841-5.042c0.448,0.259,0.886,0.55,1.314,0.871c3.812,2.852,6.832,8.04,7.423,12.747
						C438.602,411.9,438.639,412.447,438.639,412.981z"/>
					<path style="fill:#B7B4A9;" d="M432.988,415.742c-4.623-2.667-8.37-9.133-8.37-14.436c0-2.145,0.613-3.771,1.647-4.772
						c-3.125-0.24-5.311,2.073-5.311,6.237c0,5.602,3.958,12.432,8.841,15.25c3.558,2.054,6.624,1.411,8.027-1.254
						C436.457,417.09,434.789,416.782,432.988,415.742z"/>
					<g>
						<path style="fill:#CDC6BC;" d="M438.122,411.995c0,3.438-2.429,4.822-5.424,3.093c-2.996-1.73-5.424-5.919-5.424-9.356
							c0-3.438,2.429-4.822,5.424-3.093C435.693,404.368,438.122,408.557,438.122,411.995z"/>
					</g>
					<path style="fill:#9D9783;" d="M438.533,411.348c-0.93,1.349-2.696,1.603-4.72,0.434c-2.996-1.731-5.424-5.92-5.424-9.356
						c0-2.309,1.095-3.693,2.722-3.826C434.922,401.453,437.942,406.64,438.533,411.348z"/>
					<polygon style="fill:#9D9783;" points="429.797,399.055 425.729,401.411 433.743,414.422 437.754,412.107 435.016,405.564 
											"/>
					<path style="fill:#B7B4A9;" d="M435.221,411.008c0,3.438-2.428,4.822-5.424,3.093s-5.424-5.918-5.424-9.356
						c0-3.438,2.429-4.822,5.424-3.093S435.221,407.57,435.221,411.008z"/>
					<path style="fill:#D5D2C9;" d="M434.693,410.922c0,3.287-2.322,4.611-5.186,2.957c-2.865-1.654-5.187-5.659-5.187-8.946
						c0-3.287,2.322-4.611,5.187-2.957C432.371,403.629,434.693,407.635,434.693,410.922z"/>
					<path style="fill:#504F58;" d="M575.283,492.257c0,6.875-4.857,9.645-10.849,6.185c-5.992-3.459-10.849-11.837-10.849-18.712
						s4.857-9.645,10.849-6.185C570.426,477.004,575.283,485.382,575.283,492.257z"/>
					<path style="fill:#C4C2BB;" d="M574.554,491.452c0,6.229-4.401,8.739-9.83,5.604c-5.429-3.134-9.83-10.725-9.83-16.955
						c0-6.23,4.401-8.739,9.83-5.604C570.153,477.631,574.554,485.222,574.554,491.452z"/>
					<path style="fill:#B7B4A9;" d="M573.324,490.742c0,5.45-3.851,7.646-8.6,4.904c-4.75-2.742-8.601-9.384-8.601-14.835
						c0-5.45,3.851-7.646,8.601-4.904C569.474,478.649,573.324,485.291,573.324,490.742z"/>
					<path style="fill:#D5D2C9;" d="M572.262,490.128c0,4.777-3.375,6.702-7.538,4.298c-4.163-2.404-7.538-8.225-7.538-13.002
						c0-4.777,3.375-6.702,7.538-4.298C568.887,479.53,572.262,485.351,572.262,490.128z"/>
					<path style="fill:#CAC6BC;" d="M568.601,488.945c0,2.855-2.017,4.006-4.506,2.569c-2.488-1.437-4.506-4.916-4.506-7.772
						c0-2.855,2.017-4.005,4.506-2.569C566.584,482.61,568.601,486.09,568.601,488.945z"/>
					<path style="fill:#504F58;" d="M560.422,485.854c0.478,1.444,0.9,2.192,1.898,3.363c0.355,0.416,0.582,0.994,0.471,1.346l0,0
						c-0.112,0.352-0.624,0.248-1.095-0.304c-1.031-1.165-2.064-2.996-2.519-4.464c-0.225-0.681-0.037-1.153,0.33-1.052l0,0
						C559.873,484.843,560.253,485.341,560.422,485.854z"/>
					<path style="fill:#DDDDDB;" d="M567.524,488.664c0,2.515-1.777,3.528-3.968,2.262c-2.192-1.265-3.968-4.33-3.968-6.845
						c0-2.515,1.777-3.528,3.968-2.263C565.747,483.085,567.524,486.149,567.524,488.664z"/>
					<path style="fill:#B7B4A9;" d="M565.711,487.617c0,1.366-0.965,1.916-2.156,1.229s-2.156-2.352-2.156-3.718
						c0-1.366,0.965-1.916,2.156-1.229C564.746,484.587,565.711,486.251,565.711,487.617z"/>
					<polygon style="fill:#493F41;" points="596.8,503.633 585.417,502.376 580.149,499.335 578.926,486.756 585.8,490.724 
						596.8,494.497 					"/>
					<polygon style="fill:#F3F1EE;" points="561.102,378.13 381.385,274.37 379.88,276.812 562.314,382.14 					"/>
					<polygon style="fill:#6B6164;" points="511.739,421.772 381.446,346.548 382.67,345.842 512.962,421.066 					"/>
					<polygon style="fill:#554D4E;" points="511.739,421.772 511.739,425.55 512.962,424.844 512.962,421.066 					"/>
					<g>
						<polygon style="fill:#CDC6BC;" points="514.718,456.906 514.718,372.788 552.281,394.475 552.281,448.157 539.927,471.46 
													"/>
					</g>
					<polygon style="fill:#2D2C37;" points="563.13,393.836 554.664,388.949 554.664,436.868 567.206,444.109 570.75,438.336 					
						"/>
					<polygon style="fill:#573F3F;" points="555.793,436.224 555.793,390.896 562.26,394.629 569.548,437.488 566.521,442.418 					
						"/>
					<polygon style="fill:#493F41;" points="379.88,380.955 369.173,374.773 369.173,376.691 379.88,382.873 					"/>
					<polygon style="fill:#504F58;" points="590.55,475.18 586.066,472.592 586.066,467.446 590.55,470.035 					"/>
					<polygon style="fill:#FF9A2E;" points="590.169,474.524 585.244,469.636 586.447,468.103 590.169,470.252 					"/>
					<polygon style="fill:#E06F2E;" points="588.239,474.8 585.244,473.071 585.244,469.636 588.239,471.364 					"/>
					<path style="fill:#504F58;" d="M389.518,362.762c0,1.59-1.123,2.23-2.509,1.43c-1.386-0.8-2.509-2.738-2.509-4.327
						c0-1.59,1.123-2.23,2.509-1.43C388.394,359.234,389.518,361.172,389.518,362.762z"/>
					<path style="fill:#D83B2E;" d="M388.996,362.46c0,1.259-0.89,1.767-1.987,1.133c-1.097-0.634-1.987-2.168-1.987-3.428
						c0-1.259,0.89-1.767,1.987-1.133C388.106,359.667,388.996,361.201,388.996,362.46z"/>
					<path style="fill:#D83B2E;" d="M385.459,358.992c0,0-0.901,0.921-1.087,1.382c-0.186,0.461,2.119,3.69,2.119,3.69
						s1.173,0.031,1.897-0.314C389.112,363.405,385.459,358.992,385.459,358.992z"/>
					<g>
						<path style="fill:#B5AA9C;" d="M388.618,372.589c0,1.08-0.763,1.516-1.705,0.972c-0.942-0.544-1.705-1.86-1.705-2.941
							c0-1.08,0.763-1.516,1.705-0.972C387.854,370.192,388.618,371.508,388.618,372.589z"/>
					</g>
					<g>
						<path style="fill:#B5AA9C;" d="M458.156,412.737c0,1.08-0.763,1.516-1.705,0.972c-0.942-0.544-1.705-1.86-1.705-2.941
							c0-1.08,0.763-1.516,1.705-0.972C457.393,410.34,458.156,411.657,458.156,412.737z"/>
					</g>
					<g>
						<path style="fill:#B5AA9C;" d="M509.269,442.247c0,1.08-0.763,1.516-1.705,0.972c-0.942-0.543-1.705-1.86-1.705-2.941
							c0-1.08,0.763-1.516,1.705-0.972C508.506,439.85,509.269,441.166,509.269,442.247z"/>
					</g>
					<path style="fill:#FF512E;" d="M387.282,362.959c0,0.99-0.699,1.388-1.562,0.891c-0.862-0.498-1.562-1.704-1.562-2.694
						c0-0.99,0.699-1.388,1.562-0.891C386.583,360.763,387.282,361.969,387.282,362.959z"/>
					<path style="fill:#9DA1BF;" d="M388.803,371.727c0,1.08-0.763,1.516-1.705,0.972c-0.942-0.544-1.705-1.86-1.705-2.941
						c0-1.08,0.763-1.516,1.705-0.972C388.039,369.33,388.803,370.646,388.803,371.727z"/>
					<path style="fill:#9DA1BF;" d="M458.341,411.875c0,1.081-0.763,1.516-1.705,0.972c-0.942-0.544-1.705-1.86-1.705-2.941
						c0-1.081,0.763-1.516,1.705-0.972C457.578,409.478,458.341,410.794,458.341,411.875z"/>
					<path style="fill:#9DA1BF;" d="M509.454,441.385c0,1.081-0.763,1.516-1.705,0.972c-0.942-0.544-1.705-1.86-1.705-2.941
						c0-1.081,0.763-1.516,1.705-0.972C508.691,438.988,509.454,440.304,509.454,441.385z"/>
					<path style="fill:#F9F1EC;" d="M388.431,371.89c0,1.08-0.763,1.516-1.705,0.972c-0.942-0.543-1.705-1.86-1.705-2.941
						c0-1.08,0.763-1.516,1.705-0.972S388.431,370.809,388.431,371.89z"/>
					<path style="fill:#E06F2E;" d="M388.173,371.74c0,0.917-0.647,1.286-1.446,0.824c-0.799-0.461-1.446-1.578-1.446-2.494
						c0-0.916,0.647-1.286,1.446-0.824C387.525,369.707,388.173,370.824,388.173,371.74z"/>
					<path style="fill:#F9F1EC;" d="M457.97,412.038c0,1.081-0.763,1.516-1.705,0.972c-0.942-0.544-1.705-1.86-1.705-2.941
						c0-1.08,0.763-1.516,1.705-0.972C457.207,409.641,457.97,410.957,457.97,412.038z"/>
					<path style="fill:#E06F2E;" d="M457.711,411.888c0,0.917-0.647,1.286-1.446,0.825c-0.799-0.461-1.446-1.578-1.446-2.495
						c0-0.916,0.647-1.286,1.446-0.824C457.064,409.855,457.711,410.972,457.711,411.888z"/>
					<path style="fill:#F9F1EC;" d="M509.083,441.548c0,1.081-0.763,1.516-1.705,0.972c-0.942-0.544-1.705-1.86-1.705-2.941
						c0-1.08,0.763-1.516,1.705-0.972C508.32,439.151,509.083,440.467,509.083,441.548z"/>
					<path style="fill:#E06F2E;" d="M508.824,441.398c0,0.917-0.647,1.286-1.446,0.825c-0.799-0.461-1.446-1.578-1.446-2.495
						c0-0.916,0.648-1.286,1.446-0.825C508.177,439.365,508.824,440.482,508.824,441.398z"/>
					<g>
						<polygon style="fill:#CDC6BC;" points="390.854,287.321 385.022,283.954 385.022,281.363 390.854,284.73 						"/>
					</g>
					<polygon style="fill:#E06F2E;" points="390.337,286.564 385.538,283.793 385.538,281.877 390.337,284.648 					"/>
					<g>
						<polygon style="fill:#CDC6BC;" points="463.543,329.288 457.711,325.921 457.711,323.331 463.543,326.698 						"/>
					</g>
					<polygon style="fill:#E06F2E;" points="463.027,328.531 458.228,325.76 458.228,323.845 463.027,326.615 					"/>
					<g>
						<polygon style="fill:#CDC6BC;" points="555.197,382.204 549.365,378.837 549.365,376.247 555.197,379.614 						"/>
					</g>
					<polygon style="fill:#E06F2E;" points="554.681,381.448 549.881,378.677 549.881,376.761 554.681,379.532 					"/>
					<path style="fill:#2D2C37;" d="M542.765,429.998l-20.193-11.658c-2.139-1.235-3.872-4.547-3.872-7.399v-27.488
						c0-2.851,1.734-4.162,3.872-2.927l20.193,11.658c2.139,1.235,3.872,4.547,3.872,7.399v27.488
						C546.637,429.922,544.904,431.232,542.765,429.998z"/>
					<path style="fill:#573F3F;" d="M519.829,411.802v-27.908c0-2.02,1.228-2.949,2.744-2.074l20.193,11.658
						c1.515,0.875,2.744,3.222,2.744,5.242v27.908c0,2.02-1.228,2.949-2.744,2.074l-20.193-11.658
						C521.057,416.169,519.829,413.822,519.829,411.802z"/>
					<path style="fill:#2D2C37;" d="M528.796,453.442l-6.224-3.593c-2.139-1.235-3.872-4.547-3.872-7.399v-17.504
						c0-2.851,1.734-4.162,3.872-2.927l6.224,3.593c2.139,1.235,3.872,4.547,3.872,7.399v17.504
						C532.668,453.366,530.935,454.677,528.796,453.442z"/>
					<path style="fill:#573F3F;" d="M519.829,443.311v-17.924c0-2.02,1.228-2.949,2.744-2.074l6.224,3.594
						c1.515,0.875,2.744,3.222,2.744,5.242v17.924c0,2.02-1.228,2.949-2.744,2.074l-6.224-3.593
						C521.057,447.678,519.829,445.331,519.829,443.311z"/>
					<path style="fill:#504F58;" d="M569.025,485.698c-0.477-1.444-0.9-2.192-1.898-3.363c-0.355-0.416-0.582-0.994-0.471-1.346l0,0
						c0.111-0.352,0.624-0.248,1.095,0.304c1.031,1.165,2.064,2.996,2.519,4.464c0.225,0.681,0.037,1.153-0.33,1.052l0,0
						C569.575,486.71,569.195,486.211,569.025,485.698z"/>
					<path style="fill:#504F58;" d="M566.956,492.001c1.018,0.04,1.458-0.191,1.976-1.037c0.184-0.301,0.573-0.337,0.936,0l0,0
						c0.363,0.337,0.53,1.023,0.286,1.422c-0.497,0.897-1.573,1.461-2.623,1.377c-0.48-0.019-0.986-0.527-1.083-1.004l0,0
						C566.351,492.282,566.594,491.987,566.956,492.001z"/>
					<path style="fill:#504F58;" d="M562.492,479.552c-1.018-0.04-1.458,0.191-1.976,1.037c-0.184,0.301-0.573,0.337-0.936,0l0,0
						c-0.363-0.337-0.53-1.023-0.286-1.422c0.497-0.897,1.573-1.461,2.623-1.377c0.48,0.019,0.986,0.527,1.083,1.004l0,0
						C563.097,479.27,562.854,479.566,562.492,479.552z"/>
					<path style="fill:#B7B4A9;" d="M562.039,489.801c-1.031-1.165-2.065-2.997-2.52-4.464c-0.075-0.228-0.091-0.419-0.082-0.586
						c-0.316-0.019-0.471,0.412-0.262,1.044c0.455,1.468,1.488,3.299,2.52,4.464c0.471,0.552,0.983,0.655,1.095,0.304
						c0.023-0.074-0.021-0.183-0.026-0.273C562.556,490.256,562.295,490.1,562.039,489.801z"/>
					<path style="fill:#B7B4A9;" d="M570.285,486.352c-0.367-0.101-0.746-0.599-0.916-1.112c-0.478-1.444-0.9-2.192-1.898-3.363
						c-0.28-0.329-0.429-0.734-0.446-1.073c-0.177-0.03-0.318,0.024-0.369,0.185c-0.112,0.352,0.116,0.93,0.471,1.346
						c0.998,1.171,1.42,1.919,1.898,3.363c0.17,0.513,0.549,1.012,0.916,1.112c0.243,0.067,0.395-0.134,0.412-0.466
						C570.329,486.343,570.311,486.36,570.285,486.352z"/>
					<path style="fill:#B7B4A9;" d="M567.874,493.304c-0.48-0.019-0.986-0.527-1.083-1.004c-0.021-0.102,0.027-0.156,0.035-0.24
						c-0.272,0.065-0.461,0.294-0.378,0.698c0.097,0.476,0.602,0.985,1.083,1.004c1.051,0.084,2.126-0.48,2.623-1.376
						c0.005-0.009,0.004-0.021,0.009-0.03C569.601,492.989,568.739,493.374,567.874,493.304z"/>
					<g>
						<path style="fill:#B7B4A9;" d="M559.924,480.131c-0.355-0.33-0.517-0.99-0.295-1.393c-0.121,0.137-0.246,0.27-0.334,0.429
							c-0.245,0.399-0.077,1.085,0.286,1.422c0.363,0.337,0.751,0.3,0.936,0c0.106-0.172,0.208-0.303,0.312-0.427
							C560.635,480.426,560.27,480.452,559.924,480.131z"/>
						<path style="fill:#B7B4A9;" d="M562.835,479.093c-0.979-0.038-1.423,0.188-1.916,0.956c0.385-0.405,0.821-0.527,1.573-0.498
							c0.285,0.011,0.443-0.208,0.473-0.517C562.916,479.046,562.89,479.095,562.835,479.093z"/>
					</g>
					<g>
						<polygon style="fill:#C9C3B9;" points="569.691,466.26 569.087,466.26 569.109,448.937 572.79,439.702 573.35,439.926 
							569.691,449.107 						"/>
					</g>
					<g>
						<polygon style="fill:#C9C3B9;" points="593.696,469.898 571.006,444.634 571.453,444.229 594.144,469.494 						"/>
					</g>
				</g>
				<polygon style="fill:#E4DFD9;" points="659.406,427.337 593.92,465.145 593.92,492.726 659.406,454.917 				"/>
				<polygon style="fill:#EBE7E3;" points="645.243,436.93 608.082,458.385 608.082,485.606 645.243,464.151 				"/>
				<polygon style="fill:#554D4E;" points="643.361,441.408 609.965,460.689 609.965,467.47 643.361,448.189 				"/>
				<polygon style="fill:#554D4E;" points="643.361,453.454 609.965,472.734 609.965,482.723 643.361,463.442 				"/>
				<polygon style="fill:#CDC6BC;" points="641.42,447.069 609.965,465.229 609.965,467.47 643.361,448.189 643.361,441.408 
					641.42,442.528 				"/>
				<polygon style="fill:#CDC6BC;" points="641.42,454.574 641.42,462.322 609.965,480.482 609.965,482.723 643.361,463.442 
					643.361,453.454 				"/>
				<polygon style="fill:#F3F1EE;" points="593.92,465.145 659.406,427.337 638.556,402.005 573.069,439.814 				"/>
				<polygon style="fill:#FAF8F5;" points="573.069,439.814 594.081,463.902 606.384,457.237 658.508,426.981 638.556,402.005 
					659.406,427.337 593.92,465.145 				"/>
				<polygon style="fill:#F3F1EE;" points="608.082,458.385 645.243,436.93 632.073,421.514 594.912,442.969 				"/>
				<polygon style="fill:#EBE7E3;" points="562.314,382.14 627.8,344.332 638.556,402.005 573.069,439.814 				"/>
				<polygon style="fill:#554D4E;" points="606.447,417.001 606.684,418.118 574.017,436.979 566.312,392.693 598.787,373.943 
					599.024,375.062 				"/>
				<polygon style="fill:#B08480;" points="605.457,417.572 593.583,424.427 574.777,435.287 573.07,425.375 567.737,394.419 
					567.535,393.241 585.691,382.758 598.034,375.632 602.816,402.639 603.789,408.141 				"/>
				<polygon style="fill:#554D4E;" points="636.715,400.779 607.9,417.415 607.663,416.299 600.24,374.359 600.003,373.241 
					629.012,356.493 				"/>
				<polygon style="fill:#B08480;" points="635.492,400.23 625.653,405.91 612.283,413.631 608.653,415.727 607.249,407.787 
					606.993,406.343 602.07,378.53 601.23,373.786 617.961,364.128 628.251,358.186 632.103,380.546 635.116,398.042 				"/>
				<polygon style="fill:#D6B6B2;" points="635.033,399.678 634.258,400.942 629.957,403.425 621.278,398.416 621.278,362.212 
					628.002,358.33 				"/>
				<polygon style="fill:#F3F1EE;" points="562.314,382.14 627.8,344.332 626.589,340.322 561.102,378.13 				"/>
				<polygon style="fill:#FCFBFA;" points="626.589,340.322 446.872,236.562 381.385,274.37 561.102,378.13 				"/>
				<polygon style="fill:#554D4E;" points="662.584,456.516 596.8,494.497 596.8,503.633 662.584,465.652 				"/>
				<polygon style="fill:#E07427;" points="590.169,470.252 588.239,471.364 588.239,474.8 590.169,474.524 				"/>
				<polygon style="fill:#DED8D1;" points="606.781,457.72 606.781,485.3 608.082,485.606 608.082,458.385 				"/>
				<polygon style="fill:#493F41;" points="511.739,425.55 381.446,350.326 381.446,346.548 511.739,421.772 				"/>
				<g>
					<polygon style="fill:#B5AA9C;" points="646.29,459.697 655.249,454.524 647.053,455.758 646.29,456.991 					"/>
					<path style="fill:#B5AA9C;" d="M646.898,437.205l6.914-3.267c0.678-0.392,1.228-0.078,1.228,0.7v14.421
						c0,0.778-0.55,1.726-1.228,2.118l-6.914,3.992c-0.678,0.392-1.228,0.078-1.228-0.7v-14.42
						C645.67,439.27,646.22,437.597,646.898,437.205z"/>
					<path style="fill:#393843;" d="M655.925,432.926l-0.701-0.411c-0.005-0.003-0.01-0.006-0.015-0.009l-0.005-0.003l0,0
						c-0.221-0.119-0.523-0.098-0.855,0.095l-6.914,3.992c-0.678,0.392-1.228,1.34-1.228,2.118v14.42
						c0,0.364,0.121,0.624,0.318,0.76l0,0l0.001,0.001c0.026,0.018,0.055,0.034,0.084,0.048l0.68,0.388l0.218-0.54l6.841-3.95
						c0.678-0.391,1.228-1.34,1.228-2.118v-13.926L655.925,432.926z"/>
					<g>
						<path style="fill:#5C5B64;" d="M648.075,436.961l6.914-3.992c0.678-0.392,1.228-0.078,1.228,0.7v14.42
							c0,0.778-0.55,1.726-1.228,2.118l-6.914,3.992c-0.678,0.392-1.228,0.078-1.228-0.7v-14.421
							C646.848,438.301,647.397,437.352,648.075,436.961z"/>
						<path style="fill:#CFCEDF;" d="M648.423,437.799l6.219-3.591c0.46-0.266,0.834-0.056,0.834,0.469v13.258
							c0,0.525-0.373,1.166-0.834,1.432l-6.219,3.59c-0.46,0.266-0.833,0.056-0.833-0.469v-13.258
							C647.59,438.706,647.963,438.065,648.423,437.799z"/>
						<polygon style="fill:#CFCEDF;" points="656.726,435.357 655.284,434.182 647.895,453.048 649.647,453.414 						"/>
						<path style="fill:#F3F1EE;" d="M650.139,438.806l5.956-3.439c0.441-0.255,0.798-0.053,0.798,0.449v12.698
							c0,0.503-0.357,1.117-0.798,1.371l-5.956,3.439c-0.441,0.255-0.798,0.053-0.798-0.449v-12.698
							C649.341,439.675,649.698,439.061,650.139,438.806z"/>
						<path style="fill:#EEFAF9;" d="M648.731,438.258l5.956-3.439c0.441-0.255,0.798-0.053,0.798,0.449v12.698
							c0,0.503-0.357,1.117-0.798,1.371l-5.956,3.439c-0.441,0.255-0.798,0.053-0.798-0.449V439.63
							C647.932,439.127,648.29,438.513,648.731,438.258z"/>
					</g>
					<polygon style="fill:#E07427;" points="648.164,459.105 657.124,453.932 657.124,451.227 648.164,456.399 					"/>
					<polygon style="fill:#FF9A2E;" points="648.164,456.399 647.053,455.758 656.012,450.585 657.124,451.227 					"/>
					<polygon style="fill:#E06F2E;" points="648.164,456.399 647.053,455.758 647.053,458.463 648.164,459.105 					"/>
				</g>
				<g>
					<polygon style="fill:#B5AA9C;" points="595.947,488.814 604.907,483.641 596.71,484.874 595.947,486.108 					"/>
					<path style="fill:#B5AA9C;" d="M596.555,466.322l6.914-3.267c0.678-0.392,1.228-0.078,1.228,0.7v14.42
						c0,0.778-0.55,1.726-1.228,2.118l-6.914,3.992c-0.678,0.392-1.228,0.078-1.228-0.7v-14.421
						C595.327,468.387,595.877,466.714,596.555,466.322z"/>
					<path style="fill:#393843;" d="M605.583,462.043l-0.701-0.411c-0.005-0.003-0.01-0.006-0.015-0.009l-0.005-0.003l-0.001,0
						c-0.221-0.119-0.523-0.098-0.855,0.095l-6.914,3.992c-0.678,0.392-1.228,1.34-1.228,2.118v14.42
						c0,0.364,0.121,0.624,0.318,0.76v0l0.001,0.001c0.027,0.018,0.055,0.034,0.084,0.048l0.68,0.388l0.218-0.54l6.841-3.95
						c0.678-0.391,1.228-1.34,1.228-2.118v-13.926L605.583,462.043z"/>
					<g>
						<path style="fill:#5C5B64;" d="M597.733,466.078l6.914-3.992c0.678-0.392,1.228-0.078,1.228,0.7v14.421
							c0,0.778-0.55,1.726-1.228,2.118l-6.914,3.992c-0.678,0.392-1.228,0.078-1.228-0.7v-14.42
							C596.505,467.417,597.055,466.469,597.733,466.078z"/>
						<path style="fill:#CFCEDF;" d="M598.081,466.916l6.219-3.591c0.46-0.266,0.833-0.056,0.833,0.469v13.258
							c0,0.525-0.373,1.166-0.833,1.432l-6.219,3.59c-0.46,0.266-0.834,0.056-0.834-0.469v-13.258
							C597.247,467.823,597.62,467.182,598.081,466.916z"/>
						<polygon style="fill:#CFCEDF;" points="606.384,464.474 604.941,463.299 597.552,482.165 599.304,482.531 						"/>
						<path style="fill:#F3F1EE;" d="M599.796,467.923l5.956-3.439c0.441-0.255,0.798-0.053,0.798,0.449v12.698
							c0,0.503-0.357,1.117-0.798,1.371l-5.956,3.439c-0.441,0.255-0.798,0.053-0.798-0.449v-12.698
							C598.998,468.791,599.355,468.177,599.796,467.923z"/>
					</g>
					<polygon style="fill:#E07427;" points="597.821,488.222 606.781,483.049 606.781,480.343 597.821,485.516 					"/>
					<polygon style="fill:#F5EC73;" points="647.241,458.598 656.2,453.425 656.2,450.72 647.241,455.892 					"/>
					<polygon style="fill:#F5EC73;" points="596.898,487.715 605.858,482.542 605.858,479.836 596.898,485.009 					"/>
					<polygon style="fill:#FF9A2E;" points="597.821,485.516 596.71,484.874 605.67,479.702 606.781,480.343 					"/>
					<polygon style="fill:#E06F2E;" points="597.821,485.516 596.71,484.874 596.71,487.58 597.821,488.222 					"/>
				</g>
				<polygon style="fill:#9B897F;" points="516.674,455.776 516.674,373.918 514.718,372.788 514.718,456.906 539.927,471.46 
					540.844,469.73 				"/>
				<polygon style="fill:#997A77;" points="603.789,408.141 605.457,417.572 574.777,435.287 573.07,425.375 				"/>
				<polygon style="fill:#997A77;" points="635.492,400.23 608.653,415.727 606.993,406.343 625.692,395.852 635.116,398.042 				
					"/>
				<polygon style="fill:#F3F1EE;" points="516.674,455.776 514.718,456.906 539.927,471.46 540.844,469.73 				"/>
				<g>
					<polygon style="fill:#493F41;" points="538.698,478.23 508.129,460.581 508.129,462.499 538.698,480.148 					"/>
					<polygon style="fill:#554D4E;" points="538.698,478.23 543.531,475.439 543.531,477.357 538.698,480.148 					"/>
					<polygon style="fill:#6B6164;" points="538.698,478.23 543.531,475.439 512.962,457.79 508.129,460.581 					"/>
				</g>
				<path style="fill:#EEFAF9;" d="M598.351,467.161l5.956-3.439c0.441-0.255,0.798-0.053,0.798,0.449v12.698
					c0,0.503-0.358,1.117-0.798,1.371l-5.956,3.439c-0.441,0.255-0.798,0.053-0.798-0.449v-12.698
					C597.552,468.029,597.91,467.415,598.351,467.161z"/>
				<polygon style="fill:#F2F1F0;" points="516.674,373.918 516.674,375.632 549.881,395.178 549.881,447.968 539.218,468.792 
					540.844,469.73 552.281,448.157 552.281,394.475 				"/>
			</g>
			<polygon style="fill:#DED8D1;" points="606.781,457.72 589.249,436.399 608.082,458.385 			"/>
			<polygon style="fill:#F3F1EE;" points="641.42,447.069 643.361,448.189 609.965,467.47 609.965,465.229 			"/>
			<polygon style="fill:#F3F1EE;" points="641.42,462.322 643.361,463.442 609.965,482.723 609.965,480.482 			"/>
			<polygon style="fill:#CBCADD;" points="598.034,375.632 599.275,382.642 594.113,377.896 			"/>
			<path style="fill:#CBCADD;" d="M610.994,368.149v20.672c0,2.02-1.227,2.948-2.744,2.072l-4.768-4.384l-2.253-12.723
				L610.994,368.149z"/>
			<polygon style="fill:#D6B6B2;" points="599.275,382.642 594.113,377.896 598.034,375.632 			"/>
			<path style="fill:#D6B6B2;" d="M601.23,373.786l9.765-5.637v20.672c0,2.02-1.227,2.948-2.744,2.072l-4.768-4.384L601.23,373.786z
				"/>
			<g>
				<g>
					<polygon style="fill:#EBE7E3;" points="560.401,374.427 385.693,273.415 386.917,272.709 560.826,374.427 					"/>
					<polygon style="fill:#FCFBFA;" points="560.826,374.026 386.118,273.014 387.341,272.307 562.049,373.319 					"/>
					<polygon style="fill:#EBE7E3;" points="560.826,374.026 560.826,374.427 562.049,373.721 562.049,373.319 					"/>
					<polygon style="fill:#CDC6BC;" points="560.826,374.427 386.118,273.415 386.118,273.014 560.826,374.026 					"/>
				</g>
				<g>
					<polygon style="fill:#EBE7E3;" points="568.441,369.785 393.733,268.773 394.956,268.067 568.865,369.785 					"/>
					<polygon style="fill:#FCFBFA;" points="568.865,369.384 394.157,268.372 395.381,267.666 570.089,368.678 					"/>
					<polygon style="fill:#EBE7E3;" points="568.865,369.384 568.865,369.785 570.089,369.079 570.089,368.678 					"/>
					<polygon style="fill:#CDC6BC;" points="568.865,369.785 394.157,268.773 394.157,268.372 568.865,369.384 					"/>
				</g>
				<g>
					<polygon style="fill:#EBE7E3;" points="576.481,365.144 401.773,264.132 402.996,263.425 576.905,365.144 					"/>
					<polygon style="fill:#FCFBFA;" points="576.905,364.742 402.197,263.73 403.421,263.024 578.129,364.036 					"/>
					<polygon style="fill:#EBE7E3;" points="576.905,364.742 576.905,365.144 578.129,364.437 578.129,364.036 					"/>
					<polygon style="fill:#CDC6BC;" points="576.905,365.144 402.197,264.132 402.197,263.73 576.905,364.742 					"/>
				</g>
				<g>
					<polygon style="fill:#EBE7E3;" points="584.521,360.502 409.813,259.49 411.036,258.783 584.945,360.502 					"/>
					<polygon style="fill:#FCFBFA;" points="584.945,360.101 410.237,259.089 411.46,258.382 586.168,359.394 					"/>
					<polygon style="fill:#EBE7E3;" points="584.945,360.101 584.945,360.502 586.168,359.795 586.168,359.394 					"/>
					<polygon style="fill:#CDC6BC;" points="584.945,360.502 410.237,259.49 410.237,259.089 584.945,360.101 					"/>
				</g>
				<g>
					<polygon style="fill:#EBE7E3;" points="592.56,355.86 417.852,254.848 419.076,254.142 592.985,355.86 					"/>
					<polygon style="fill:#FCFBFA;" points="592.985,355.459 418.277,254.447 419.5,253.74 594.208,354.752 					"/>
					<polygon style="fill:#EBE7E3;" points="592.985,355.459 592.985,355.86 594.208,355.154 594.208,354.752 					"/>
					<polygon style="fill:#CDC6BC;" points="592.985,355.86 418.277,254.848 418.277,254.447 592.985,355.459 					"/>
				</g>
				<g>
					<polygon style="fill:#EBE7E3;" points="600.6,351.218 425.892,250.206 427.116,249.5 601.024,351.218 					"/>
					<polygon style="fill:#FCFBFA;" points="601.024,350.817 426.316,249.805 427.54,249.099 602.248,350.111 					"/>
					<polygon style="fill:#EBE7E3;" points="601.024,350.817 601.024,351.218 602.248,350.512 602.248,350.111 					"/>
					<polygon style="fill:#CDC6BC;" points="601.024,351.218 426.316,250.206 426.316,249.805 601.024,350.817 					"/>
				</g>
				<g>
					<polygon style="fill:#EBE7E3;" points="608.64,346.577 433.932,245.565 435.155,244.858 609.064,346.577 					"/>
					<polygon style="fill:#FCFBFA;" points="609.064,346.175 434.356,245.163 435.58,244.457 610.288,345.469 					"/>
					<polygon style="fill:#EBE7E3;" points="609.064,346.175 609.064,346.577 610.288,345.87 610.288,345.469 					"/>
					<polygon style="fill:#CDC6BC;" points="609.064,346.577 434.356,245.565 434.356,245.163 609.064,346.175 					"/>
				</g>
				<g>
					<polygon style="fill:#EBE7E3;" points="616.68,341.935 441.972,240.923 443.195,240.216 617.104,341.935 					"/>
					<polygon style="fill:#FCFBFA;" points="617.104,341.533 442.396,240.521 443.619,239.815 618.327,340.827 					"/>
					<polygon style="fill:#EBE7E3;" points="617.104,341.533 617.104,341.935 618.327,341.228 618.327,340.827 					"/>
					<polygon style="fill:#CDC6BC;" points="617.104,341.935 442.396,240.923 442.396,240.521 617.104,341.533 					"/>
				</g>
			</g>
			<g>
				<g>
					<polygon style="fill:#EBE7E3;" points="577.43,366.788 574.549,365.139 576.827,363.784 579.067,366.788 					"/>
					<polygon style="fill:#E07427;" points="579.067,366.788 581.345,365.433 581.345,364.304 579.067,365.659 					"/>
					<polygon style="fill:#FF9A2E;" points="579.067,365.659 576.185,364.01 578.463,362.655 581.345,364.304 					"/>
					<polygon style="fill:#E06F2E;" points="579.067,365.659 576.185,364.01 576.185,365.139 579.067,366.788 					"/>
				</g>
				<g>
					<polygon style="fill:#EBE7E3;" points="588.82,360.01 585.938,358.361 588.216,357.006 590.457,360.01 					"/>
					<polygon style="fill:#E07427;" points="590.457,360.01 592.735,358.655 592.735,357.526 590.457,358.882 					"/>
					<polygon style="fill:#FF9A2E;" points="590.457,358.882 587.575,357.233 589.853,355.877 592.735,357.526 					"/>
					<polygon style="fill:#E06F2E;" points="590.457,358.882 587.575,357.233 587.575,358.361 590.457,360.01 					"/>
				</g>
				<g>
					<polygon style="fill:#EBE7E3;" points="600.209,353.233 597.328,351.584 599.606,350.228 601.846,353.233 					"/>
					<polygon style="fill:#E07427;" points="601.846,353.233 604.124,351.877 604.124,350.748 601.846,352.104 					"/>
					<polygon style="fill:#FF9A2E;" points="601.846,352.104 598.964,350.455 601.242,349.099 604.124,350.748 					"/>
					<polygon style="fill:#E06F2E;" points="601.846,352.104 598.964,350.455 598.964,351.584 601.846,353.233 					"/>
				</g>
			</g>
			<polygon style="fill:#CDC6BC;" points="594.673,434.065 609.614,425.44 606.716,421.894 591.775,430.52 			"/>
			<polygon style="fill:#CDC6BC;" points="615.535,421.942 630.476,413.316 627.578,409.77 612.637,418.396 			"/>
			<path style="fill:#493F41;" d="M601.007,422.986c0.324,0.33,0.805,0.272,1.076-0.13c0.27-0.402,0.227-0.995-0.097-1.325
				c-0.324-0.33-0.805-0.272-1.076,0.13C600.64,422.063,600.683,422.657,601.007,422.986z"/>
			<path style="fill:#493F41;" d="M601.069,422.894c0.283,0.288,0.703,0.237,0.939-0.114c0.236-0.351,0.198-0.868-0.084-1.157
				c-0.26-0.265-0.637-0.243-0.88,0.036c-0.021,0.024-0.041,0.05-0.059,0.078C600.749,422.088,600.787,422.606,601.069,422.894z"/>
			<path style="fill:#493F41;" d="M601.51,421.437c0,0,0.517,0.042,0.684,0.112c0.167,0.071,0.098,1.241,0.098,1.241
				s-0.397,0.227-0.724,0.284C601.241,423.132,601.51,421.437,601.51,421.437z"/>
			<path style="fill:#5C504E;" d="M601.771,422.686c0.222,0.226,0.552,0.186,0.738-0.089c0.185-0.276,0.156-0.683-0.066-0.909
				c-0.222-0.226-0.552-0.186-0.738,0.089C601.52,422.053,601.549,422.46,601.771,422.686z"/>
			<polygon style="fill:#383838;" points="603.789,408.141 605.457,417.572 593.583,424.427 567.737,394.419 567.535,393.241 
				585.691,382.758 602.816,402.639 			"/>
			<polygon style="fill:#383838;" points="612.283,413.631 608.653,415.727 607.249,407.787 			"/>
			<polygon style="fill:#383838;" points="635.492,400.23 625.653,405.91 602.07,378.53 601.23,373.786 617.961,364.128 
				632.103,380.546 635.116,398.042 			"/>
			<polygon style="fill:#493F41;" points="616.308,487.368 612.137,489.776 612.137,487.923 616.308,485.516 			"/>
			<polygon style="fill:#E06F2E;" points="615.939,487.253 612.507,489.235 612.507,487.865 615.939,485.883 			"/>
			<polygon style="fill:#E06F2E;" points="645.989,469.44 642.557,471.422 642.557,470.052 645.989,468.07 			"/>
			<polygon style="fill:#493F41;" points="594.472,422.663 593.529,423.555 601.461,422.75 601.375,421.629 			"/>
			<path style="fill:#5C504E;" d="M602.048,419.367c-0.081,0.008-22.486,11.631-22.486,11.631l-0.24-0.709l21.832-11.807
				L602.048,419.367z"/>
		</g>
		<g>
			<g>
				<path style="fill:#E9E5E1;" d="M488.328,397.682c-1.037,0-2.14-0.32-3.248-0.959l-36.739-21.212
					c-4.022-2.321-7.173-8.291-7.173-13.59v-20.962c0-3.003,1.059-5.338,2.905-6.403c1.602-0.926,3.581-0.806,5.573,0.343
					l36.739,21.212c4.022,2.323,7.173,8.292,7.173,13.59v20.963c0,3.003-1.059,5.337-2.905,6.402
					C489.942,397.477,489.156,397.682,488.328,397.682z M486.385,394.465c0.811,0.467,1.987,0.911,2.965,0.343
					c1.003-0.58,1.602-2.129,1.602-4.145V369.7c0-4.306-2.69-9.495-5.872-11.333l-36.739-21.212
					c-0.808-0.466-1.972-0.908-2.965-0.343c-1.003,0.58-1.602,2.129-1.602,4.146v20.962c0,4.307,2.69,9.496,5.872,11.333
					L486.385,394.465z"/>
			</g>
			<g>
				<path style="fill:#D9D3CC;" d="M488.303,396.483c-1.037,0.001-2.14-0.32-3.245-0.959l-36.741-21.212
					c-4.022-2.323-7.172-8.292-7.172-13.59v-20.962c0-3.003,1.059-5.338,2.907-6.404c1.602-0.924,3.584-0.805,5.57,0.345
					l36.741,21.213c4.022,2.323,7.172,8.291,7.172,13.589v20.963c0,3.003-1.059,5.337-2.904,6.403
					C489.918,396.278,489.131,396.483,488.303,396.483z M446.384,335.346c-0.35,0-0.701,0.077-1.03,0.267
					c-1.003,0.58-1.604,2.129-1.604,4.146v20.962c0,4.306,2.69,9.495,5.872,11.333l36.741,21.212
					c0.811,0.468,1.982,0.912,2.963,0.343c1.003-0.579,1.604-2.129,1.604-4.145v-20.963c0-4.305-2.69-9.494-5.872-11.332
					l-36.741-21.213C447.779,335.646,447.08,335.346,446.384,335.346z"/>
			</g>
		</g>
		<g>
			<g>
				<path style="fill:#E9E5E1;" d="M431.16,364.676c-1.037,0-2.14-0.321-3.248-0.96l-36.739-21.212
					c-4.022-2.321-7.173-8.29-7.173-13.589v-20.963c0-3.003,1.059-5.337,2.905-6.403c1.607-0.928,3.581-0.805,5.573,0.345
					l36.739,21.212c4.022,2.321,7.173,8.29,7.173,13.589v20.964c0,3.003-1.059,5.337-2.905,6.403
					C432.772,364.472,431.988,364.676,431.16,364.676z M429.217,361.459c0.811,0.469,1.982,0.913,2.963,0.344
					c1.005-0.579,1.604-2.129,1.604-4.146v-20.964c0-4.306-2.69-9.495-5.872-11.332l-36.739-21.212
					c-0.808-0.469-1.982-0.909-2.963-0.344c-1.005,0.579-1.604,2.129-1.604,4.146v20.963c0,4.306,2.69,9.495,5.872,11.332
					L429.217,361.459z"/>
			</g>
			<g>
				<path style="fill:#D9D3CC;" d="M431.136,363.477c-1.037,0-2.14-0.321-3.245-0.96l-36.741-21.212
					c-4.022-2.323-7.172-8.291-7.172-13.589v-20.963c0-3.003,1.059-5.337,2.904-6.403c1.607-0.924,3.586-0.805,5.573,0.344
					l36.741,21.212c4.022,2.323,7.172,8.292,7.172,13.59v20.962c0,3.003-1.059,5.337-2.907,6.403
					C432.75,363.273,431.963,363.477,431.136,363.477z M389.216,302.341c-0.35,0-0.701,0.077-1.03,0.267
					c-1.003,0.579-1.604,2.129-1.604,4.145v20.963c0,4.304,2.69,9.494,5.872,11.332l36.741,21.212
					c0.808,0.469,1.982,0.912,2.963,0.344c1.003-0.579,1.604-2.13,1.604-4.146v-20.962c0-4.306-2.69-9.495-5.872-11.333
					l-36.741-21.212C390.611,302.641,389.913,302.341,389.216,302.341z"/>
			</g>
		</g>
		<polygon style="fill:#F5B53D;" points="510.172,416.265 379.88,341.041 379.88,337.263 510.172,412.488 		"/>
		<g>
			<path style="fill:#DE4037;" d="M399.444,318.711v7.636c0,1.438,1.553,2.34,2.802,1.628l6.655-3.794
				c1.257-0.717,1.262-2.527,0.009-3.25l-6.655-3.842C401.006,316.367,399.444,317.268,399.444,318.711z"/>
			<path style="fill:#DE4037;" d="M419.175,346.252v-7.636c0-1.438-1.553-2.34-2.802-1.628l-6.655,3.794
				c-1.257,0.717-1.262,2.527-0.009,3.25l6.655,3.842C417.613,348.596,419.175,347.695,419.175,346.252z"/>
			<path style="fill:#F5B53D;" d="M400.381,338.647l5.279,3.048c1.662,0.959,3.52-0.902,2.558-2.562l-5.279-9.105
				c-0.96-1.657-3.495-0.975-3.495,0.94v6.057C399.444,337.694,399.801,338.312,400.381,338.647z"/>
			<path style="fill:#F5B53D;" d="M418.238,326.316l-5.279-3.048c-1.662-0.959-3.52,0.902-2.558,2.562l5.279,9.105
				c0.961,1.657,3.495,0.975,3.495-0.94v-6.057C419.175,327.269,418.818,326.651,418.238,326.316z"/>
			<g>
				<path style="fill:#493F41;" d="M433.507,341.449c0,2.746-1.716,3.534-4.38,1.996l-3.416-1.972v-9.04l3.516,2.03
					C431.822,335.962,433.507,338.702,433.507,341.449z M430.846,339.937c0-1.342-0.662-2.6-1.675-3.185l-0.852-0.492v4.398
					l0.976,0.564C430.24,341.768,430.846,341.265,430.846,339.937z"/>
				<path style="fill:#493F41;" d="M440.903,341.204v2.27l-4.056-2.341v1.109l3.684,2.127v2.269l-3.684-2.127v1.122l4.156,2.399
					v2.269l-6.763-3.905v-9.04L440.903,341.204z"/>
				<path style="fill:#493F41;" d="M444.602,343.34v6.552l3.279,1.893v2.488l-5.887-3.399v-9.04L444.602,343.34z"/>
				<path style="fill:#493F41;" d="M451.165,347.13v9.04l-2.607-1.506v-9.04L451.165,347.13z"/>
				<path style="fill:#493F41;" d="M454.457,349.03l1.629,6.872l1.619-4.997l2.661,1.536l-3.012,7.302l-2.695-1.556l-2.99-10.766
					L454.457,349.03z"/>
				<path style="fill:#493F41;" d="M467.536,356.581v2.27l-4.054-2.341v1.109l3.684,2.127v2.269l-3.684-2.127v1.122l4.156,2.399
					v2.269l-6.763-3.905v-9.04L467.536,356.581z"/>
				<path style="fill:#493F41;" d="M473.158,368.866l-0.945-2.892l-0.976-0.564v2.347l-2.608-1.506v-9.04l3.81,2.2
					c2.133,1.232,3.357,3.113,3.357,5.176c0,1.316-0.438,2.043-1.247,2.142l1.551,3.836L473.158,368.866z M471.237,363.141
					l1.203,0.694c0.56,0.324,0.886,0.112,0.886-0.584c0-0.671-0.326-1.245-0.886-1.569l-1.203-0.694V363.141z"/>
				<path style="fill:#493F41;" d="M481.53,370.89v2.811l-2.605-1.505v-2.746l-2.878-7.954l2.595,1.499l1.585,4.396l1.526-2.6
					l2.595,1.499L481.53,370.89z"/>
				<path style="fill:#493F41;" d="M427.834,348.835c-0.209-0.12-0.346-0.126-0.346,0.067c0,0.811,2.917,1.989,2.917,4.326
					c0,1.436-1.101,1.436-2.369,0.703c-0.981-0.566-2.074-1.575-2.822-2.66l0.689-1.204c0.582,0.887,1.578,1.914,2.147,2.242
					c0.275,0.158,0.45,0.159,0.45-0.071c0-0.838-2.917-1.97-2.917-4.235c0-1.288,0.95-1.551,2.413-0.706
					c0.891,0.515,1.814,1.353,2.449,2.179l-0.674,1.231C429.2,350.02,428.326,349.119,427.834,348.835z"/>
				<path style="fill:#493F41;" d="M435.647,351.808v1.62l-2.902-1.675v0.791l2.637,1.523v1.62l-2.637-1.523v0.801l2.975,1.718v1.62
					l-4.84-2.794v-6.453L435.647,351.808z"/>
				<path style="fill:#493F41;" d="M439.659,360.578l-0.677-2.064l-0.699-0.404v1.675l-1.865-1.076v-6.453l2.724,1.573
					c1.527,0.881,2.405,2.225,2.405,3.698c0,0.938-0.314,1.457-0.893,1.529l1.11,2.739L439.659,360.578z M438.284,356.489
					l0.859,0.497c0.404,0.233,0.635,0.08,0.635-0.416c0-0.478-0.231-0.889-0.635-1.121l-0.859-0.497V356.489z"/>
				<path style="fill:#493F41;" d="M443.75,356.486l1.166,4.908l1.156-3.567l1.906,1.101l-2.155,5.209l-1.931-1.114l-2.138-7.687
					L443.75,356.486z"/>
				<path style="fill:#493F41;" d="M450.194,360.208v6.453l-1.862-1.076v-6.453L450.194,360.208z"/>
				<path style="fill:#493F41;" d="M453.792,363.996c-0.677-0.39-1.164-0.055-1.164,0.801c0,0.866,0.487,1.775,1.164,2.164
					c0.402,0.233,0.908,0.239,1.278,0.003l1.076,1.937c-0.626,0.421-1.582,0.375-2.449-0.125c-1.731-0.998-2.985-3.131-2.985-5.055
					c0-1.897,1.286-2.535,3.055-1.513c0.86,0.497,1.802,1.5,2.379,2.551l-1.076,0.842
					C454.732,364.88,454.226,364.247,453.792,363.996z"/>
				<path style="fill:#493F41;" d="M461.281,366.608v1.62l-2.902-1.675v0.791l2.637,1.523v1.62l-2.637-1.523v0.801l2.975,1.718v1.62
					l-4.838-2.794v-6.453L461.281,366.608z"/>
			</g>
		</g>
		<path style="fill:#493F41;" d="M630.854,405.696c0.324,0.33,0.805,0.272,1.075-0.13c0.27-0.402,0.227-0.995-0.097-1.325
			c-0.324-0.33-0.805-0.272-1.076,0.13C630.487,404.773,630.53,405.367,630.854,405.696z"/>
		<path style="fill:#493F41;" d="M630.916,405.604c0.283,0.288,0.703,0.237,0.939-0.114c0.236-0.351,0.198-0.868-0.084-1.157
			c-0.26-0.265-0.637-0.243-0.879,0.036c-0.021,0.024-0.041,0.05-0.059,0.078C630.596,404.798,630.634,405.316,630.916,405.604z"/>
		<path style="fill:#493F41;" d="M631.357,404.147c0,0,0.517,0.042,0.684,0.112c0.168,0.071,0.098,1.241,0.098,1.241
			s-0.397,0.227-0.724,0.284C631.089,405.842,631.357,404.147,631.357,404.147z"/>
		<path style="fill:#5C504E;" d="M631.619,405.396c0.222,0.226,0.552,0.186,0.738-0.089c0.185-0.276,0.156-0.683-0.066-0.909
			c-0.222-0.226-0.552-0.186-0.738,0.089C631.367,404.763,631.397,405.17,631.619,405.396z"/>
		<polygon style="fill:#493F41;" points="624.319,405.373 623.376,406.264 631.308,405.46 631.222,404.339 		"/>
		<path style="fill:#5C504E;" d="M631.895,402.077c-0.081,0.008-22.486,11.631-22.486,11.631l-0.24-0.709l21.832-11.807
			L631.895,402.077z"/>
		<polygon style="fill:#FAF8F5;" points="632.073,421.514 644.258,436.715 608.272,457.523 589.249,436.398 608.082,458.384 
			645.243,436.93 		"/>
	</g>
	<path style="display:inline;fill:#FAF8F5;" d="M620.796,493.469l10.602-6.121c1.04-0.6,1.882-2.21,1.882-3.596v-6.049
		c0-1.386-0.843-2.023-1.882-1.423l-10.602,6.121c-1.039,0.6-1.882,2.21-1.882,3.596v6.049
		C618.914,493.432,619.757,494.069,620.796,493.469z"/>
	<path style="display:inline;fill:#EBE7E3;" d="M633.858,477.947v6.058c0,1.378-0.858,2.991-1.898,3.589l-10.609,6.11
		c-1.04,0.598-1.872-0.027-1.872-1.404v-6.058c0-1.378,0.832-2.99,1.872-3.588l10.609-6.137
		C633,475.918,633.858,476.569,633.858,477.947z"/>
	<path style="display:inline;fill:#FF8E8C;" d="M633.858,477.947v0.676l-14.379,8.295v-0.676c0-1.378,0.832-2.99,1.872-3.588
		l10.609-6.137C633,475.918,633.858,476.569,633.858,477.947z"/>
	<g style="display:inline;">
		<path style="fill:#898184;" d="M373.552,374.431c-0.002-0.158-0.044-12.26-0.032-19.504c-1.334-0.64-2.736-1.327-3.528-1.751
			l-0.735-0.393l0.207-0.985c0.387-1.109,3.883-3.001,5.049-2.799c0.594,0.108,1.001,0.595,0.986,1.186
			c-0.012,0.663-0.022,1.915-0.027,3.514c1.312,0.626,2.366,1.119,2.391,1.128c0.898,0.578,1.916,0.583,2.695,0.082l1.337-0.855
			l1.052,1.643l-1.337,0.855c-1.432,0.917-3.277,0.906-4.694-0.026c-0.032-0.011-0.616-0.281-1.446-0.673
			c-0.01,7.284,0.029,18.417,0.029,18.569L373.552,374.431z M371.962,351.996c0.472,0.236,1.01,0.5,1.565,0.769
			c0.002-0.613,0.005-1.158,0.01-1.614C373.048,351.363,372.437,351.691,371.962,351.996z"/>
	</g>
	<path style="display:inline;fill:#898184;" d="M375.214,374.03c-0.382-0.221-0.999-0.222-1.379-0.002
		c-0.38,0.219-0.378,0.576,0.004,0.796c0.382,0.221,0.999,0.221,1.379,0.003C375.597,374.607,375.596,374.251,375.214,374.03z"/>
	<path style="display:inline;fill:#898184;" d="M381.726,354.491c0.008,0.441,0.326,0.97,0.71,1.182
		c0.384,0.212,0.688,0.026,0.68-0.415c-0.008-0.441-0.327-0.97-0.71-1.182C382.022,353.865,381.718,354.051,381.726,354.491z"/>
</g>
<g>
	<g>
		<path style="fill:#FFFFFF;" d="M165.473,77.434l-6.816-6.816c6.566,22.426,1.025,47.676-16.631,65.331l-40.981,40.981
			l11.397,11.396l12.05,12.05l11.397,11.397c22.633,22.633,59.329,22.633,81.962,0c22.633-22.633,22.633-59.328,0-81.962
			l-11.397-11.397L176.87,88.831L165.473,77.434L165.473,77.434z"/>
		<path style="fill:#05C1AA;" d="M54.367,48.29c-22.633,22.633-22.633,59.328,0,81.962l40.981,40.981l40.981-40.981
			c22.633-22.633,22.633-59.329,0-81.962C113.696,25.657,77,25.657,54.367,48.29z M120.874,114.796
			c-14.098,14.098-36.954,14.098-51.052,0s-14.098-36.954,0-51.052s36.954-14.098,51.052,0S134.972,100.699,120.874,114.796z"/>
	</g>
	<g>
		<path style="fill:#FFFFFF;" d="M293.69,65.345h52.332c11.35,0,20.578,3.284,27.677,9.848c7.1,6.569,10.652,14.515,10.652,23.844
			c0,12.912-6.712,22.461-20.131,28.667c5.884,2.677,11.475,9.878,16.775,21.615c5.299,11.731,10.414,22.801,15.35,33.191h-32.029
			c-1.913-3.857-5.24-11.207-9.994-22.056c-4.751-10.849-8.816-17.812-12.199-20.888c-3.383-3.07-7.004-4.608-10.861-4.608h-8.387
			v47.552H293.69V65.345z M322.876,86.816v26.67h15.43c4.921,0,8.82-1.162,11.702-3.481c2.879-2.319,4.319-5.633,4.319-9.937
			c0-8.834-5.565-13.251-16.691-13.251H322.876z"/>
		<path style="fill:#FFFFFF;" d="M488.767,103.341l-31.206,38.687l33.555,40.482h-28.929l-18.634-24.542l-17.979,24.542h-28.053
			l32.303-40.422l-32.303-38.747h29.031l17.031,22.873l16.166-22.873H488.767z"/>
		<path style="fill:#05C1AA;" d="M567.727,108.789l37.656-43.444h25.37V182.51h-29.186v-73.13l-31.653,36.732h-4.381l-31.647-36.732
			v73.13h-29.185V65.345h25.34L567.727,108.789z"/>
		<path style="fill:#05C1AA;" d="M653.066,77.589c0-3.797,1.341-7.046,4.024-9.729c2.683-2.683,5.901-4.024,9.645-4.024
			c3.803,0,7.046,1.341,9.729,4.024c2.682,2.683,4.03,5.931,4.03,9.729c0,3.75-1.347,6.974-4.03,9.687
			c-2.683,2.712-5.925,4.071-9.729,4.071c-3.744,0-6.962-1.359-9.645-4.071C654.407,84.563,653.066,81.338,653.066,77.589z
			 M679.319,103.341v79.169h-24.911v-79.169H679.319z"/>
		<path style="fill:#05C1AA;" d="M725.869,65.345V182.51h-24.911V65.345H725.869z"/>
		<path style="fill:#05C1AA;" d="M824.238,157.938v15.684c-9.502,6.933-21.275,10.396-35.307,10.396
			c-13.919,0-25.048-3.732-33.376-11.207c-8.334-7.469-12.5-17.365-12.5-29.68c0-12.089,3.917-22.02,11.743-29.799
			c7.827-7.779,17.806-11.672,29.943-11.672c12.184,0,22.181,4.095,29.984,12.286c7.797,8.19,11.445,19.165,10.944,32.923h-56.863
			c0.501,7.183,3.046,12.709,7.63,16.584c4.584,3.869,10.736,5.806,18.449,5.806C804.221,169.258,814.009,165.485,824.238,157.938z
			 M769.307,133.784h34.383c-1.341-11.517-7.07-17.281-17.192-17.281C776.27,116.503,770.535,122.267,769.307,133.784z"/>
	</g>
</g>
<g>
	<path style="fill:#05C1AA;" d="M838.856,61.864h-9.826v-6.622h27.128v6.622h-9.825v26.273h-7.476V61.864z M863.1,55.242h7.903
		l8.651,13.884l8.651-13.884h7.69v32.895h-7.049V65.922l-9.078,14.418h-0.641l-9.078-14.418v22.215H863.1V55.242z"/>
</g>
</svg>
