<svg width="88" height="88" viewBox="0 0 88 88" fill="none" xmlns="http://www.w3.org/2000/svg">
<path d="M67.98 15.1067L47.8133 7.55333C45.7233 6.78333 42.3133 6.78333 40.2233 7.55333L20.0567 15.1067C16.17 16.5733 13.0167 21.12 13.0167 25.2633V54.9633C13.0167 57.9333 14.96 61.8567 17.3433 63.6167L37.51 78.6867C41.0667 81.3633 46.8967 81.3633 50.4533 78.6867L70.62 63.6167C73.0033 61.82 74.9467 57.9333 74.9467 54.9633V25.2633C74.9833 21.12 71.83 16.5733 67.98 15.1067ZM56.76 35.64L40.9933 51.4067C40.4433 51.9567 39.7467 52.2133 39.05 52.2133C38.3533 52.2133 37.6567 51.9567 37.1067 51.4067L31.24 45.4667C30.1767 44.4033 30.1767 42.6433 31.24 41.58C32.3033 40.5167 34.0633 40.5167 35.1267 41.58L39.0867 45.54L52.91 31.7167C53.9733 30.6533 55.7333 30.6533 56.7967 31.7167C57.86 32.78 57.86 34.5767 56.76 35.64Z" fill="#05C1AA"/>
</svg>
